<?xml version="1.0" encoding="UTF-8"?>
<svg version="1.1" xmlns="http://www.w3.org/2000/svg" width="400" height="400">
    <path d="M0 0 C3 1 3 1 4.5871582 3.68261719 C5.15265381 4.87532227 5.71814941 6.06802734 6.30078125 7.296875 C6.61375656 7.94936218 6.92673187 8.60184937 7.24919128 9.27410889 C8.27984867 11.42832646 9.29607668 13.58903476 10.3125 15.75 C11.02633422 17.24852819 11.74118919 18.74657054 12.45703125 20.24414062 C13.92602622 23.32008407 15.38992262 26.39837602 16.85009766 29.47851562 C18.84303074 33.67738749 20.8591197 37.86464946 22.88671875 42.046875 C23.19442703 42.68179871 23.50213531 43.31672241 23.81916809 43.97088623 C24.42308085 45.21668077 25.02708768 46.46242971 25.63119507 47.70812988 C30.83258312 58.43575293 35.93777431 69.20621711 41 80 C41.78482758 80.01030746 42.56965515 80.02061493 43.37826538 80.03123474 C50.76522328 80.12910777 58.15209546 80.23160753 65.53891563 80.33933926 C69.33678642 80.39456444 73.1346649 80.44798378 76.93261719 80.49731445 C80.59607367 80.54496401 84.25943546 80.597307 87.92277908 80.65294075 C89.32222773 80.67336163 90.72170235 80.69207517 92.12119675 80.70907402 C94.07744014 80.73312361 96.03359949 80.76374122 97.98974609 80.79467773 C99.1044931 80.81022202 100.21924011 80.8257663 101.36776733 80.84178162 C104 81 104 81 106 82 C107.08964695 84.16288529 108.0750849 86.30811661 109.02734375 88.53125 C109.32770035 89.21678955 109.62805695 89.9023291 109.93751526 90.60864258 C110.59473909 92.10929409 111.24922973 93.6111448 111.90136719 95.11401367 C113.68819991 99.22869705 115.49786323 103.33328844 117.30859375 107.4375 C117.87959305 108.73258484 117.87959305 108.73258484 118.46212769 110.05383301 C122.68242243 119.59437362 127.0878385 129.04708647 131.5 138.5 C138.37985387 153.25365275 145.10355139 168.06748257 151.66210938 182.96679688 C152.26934 184.34513636 152.87675751 185.72339352 153.484375 187.1015625 C153.91979614 188.08935699 153.91979614 188.08935699 154.36401367 189.09710693 C156.99626239 195.04250442 159.74870929 200.92841657 162.52832031 206.80615234 C163.77512435 209.51197358 164.92686442 212.22174216 166 215 C159.67774908 219.6818147 153.34346393 224.34697196 147 229 C146.39510742 229.44553223 145.79021484 229.89106445 145.16699219 230.35009766 C143.78359618 231.36606996 142.39231549 232.371286 141 233.375 C140.278125 233.89835938 139.55625 234.42171875 138.8125 234.9609375 C137 236 137 236 134 236 C132.65722268 233.2336466 131.32744772 230.46123789 130 227.6875 C129.6184375 226.90181641 129.236875 226.11613281 128.84375 225.30664062 C128.4828125 224.54931641 128.121875 223.79199219 127.75 223.01171875 C127.41484375 222.31522217 127.0796875 221.61872559 126.734375 220.90112305 C126 219 126 219 126 216 C128.40625 213.95703125 128.40625 213.95703125 131.5 211.8125 C132.5209375 211.09707031 133.541875 210.38164062 134.59375 209.64453125 C135.3878125 209.10183594 136.181875 208.55914062 137 208 C136.34331774 203.71588183 134.83771727 200.00116544 133.0703125 196.078125 C132.76826904 195.39761078 132.46622559 194.71709656 132.1550293 194.01596069 C131.15054812 191.75812868 130.13808519 189.50398319 129.125 187.25 C128.41250048 185.65547962 127.70010013 184.06091492 126.98779297 182.46630859 C120.72547126 168.48271991 114.29868915 154.57513176 107.82470703 140.68847656 C102.13980519 128.49124077 96.5694019 116.25268418 91 104 C58.99 103.67 26.98 103.34 -6 103 C-4.3899237 98.1697711 -2.63748714 93.77102367 -0.5 89.1875 C-0.19191406 88.50751953 0.11617187 87.82753906 0.43359375 87.12695312 C2.75981128 82.12009436 2.75981128 82.12009436 5 81 C6.87379605 80.92966231 8.75001102 80.9156978 10.625 80.9375 C11.62789062 80.94652344 12.63078125 80.95554687 13.6640625 80.96484375 C14.43492187 80.97644531 15.20578125 80.98804687 16 81 C14.18843728 77.06580966 12.37357616 73.1331633 10.55566406 69.2019043 C9.93789604 67.86475741 9.3210259 66.52719533 8.70507812 65.18920898 C7.81877483 63.26435836 6.92923666 61.34103172 6.0390625 59.41796875 C5.23782959 57.68196411 5.23782959 57.68196411 4.42041016 55.91088867 C3.03591219 52.90910376 3.03591219 52.90910376 1 50 C0.51756836 51.01030273 0.51756836 51.01030273 0.02539062 52.04101562 C-1.48159397 55.19471947 -2.99079513 58.3473581 -4.5 61.5 C-5.25796875 63.08748047 -5.25796875 63.08748047 -6.03125 64.70703125 C-9.25986552 71.44676614 -12.56022559 78.14500006 -15.91181946 84.82415771 C-19.72866495 92.43775734 -23.4655969 100.08962608 -27.1875 107.75 C-27.55173065 108.4989151 -27.9159613 109.2478302 -28.29122925 110.0194397 C-33.87861232 121.51637084 -39.32337453 133.07112463 -44.671875 144.6809082 C-47.71150315 151.26692991 -50.82781717 157.79697668 -54.11547852 164.26245117 C-56.83979781 169.63005578 -59.42545122 175.05917849 -62 180.5 C-65.30092889 187.47427993 -68.67559077 194.40192717 -72.15429688 201.2890625 C-75.59114206 208.12040981 -78.80579908 215.05261299 -82 222 C-84.98965642 221.40149598 -86.99778498 220.51087951 -89.453125 218.71484375 C-90.071875 218.26689453 -90.690625 217.81894531 -91.328125 217.35742188 C-92.27945313 216.65456055 -92.27945313 216.65456055 -93.25 215.9375 C-93.8996875 215.46505859 -94.549375 214.99261719 -95.21875 214.50585938 C-96.81653662 213.34276471 -98.40881803 212.17211399 -100 211 C-99.4390376 206.15956391 -97.91713785 202.26001886 -95.74609375 197.953125 C-95.41351563 197.27685562 -95.0809375 196.60058624 -94.73828125 195.90382385 C-94.01983027 194.44454796 -93.29794138 192.98696061 -92.57296753 191.53091431 C-90.62650342 187.62087927 -88.70530853 183.69843919 -86.78125 179.77734375 C-86.1862394 178.56717842 -86.1862394 178.56717842 -85.57920837 177.33256531 C-81.0933854 168.19056734 -76.77380828 158.97145273 -72.47238159 149.74157715 C-68.69005374 141.62588629 -64.81787587 133.56874374 -60.79222107 125.57063293 C-58.28292699 120.58279869 -55.85352608 115.56338042 -53.5 110.5 C-52.345 108.025 -51.19 105.55 -50 103 C-62.21 103 -74.42 103 -87 103 C-87.66 104.98 -88.32 106.96 -89 109 C-89.52842058 110.2587479 -90.08048113 111.50804514 -90.6640625 112.7421875 C-90.97706299 113.40686035 -91.29006348 114.0715332 -91.61254883 114.75634766 C-92.11371216 115.80508057 -92.11371216 115.80508057 -92.625 116.875 C-92.97908936 117.62185059 -93.33317871 118.36870117 -93.69799805 119.13818359 C-96.32259543 124.64768821 -99.03702402 130.10872184 -101.78759766 135.55615234 C-104.77626002 141.49746908 -107.64202274 147.4949211 -110.5 153.5 C-115.22978066 163.43156785 -120.0796425 173.29378949 -125.06738281 183.09814453 C-125.79755684 184.5334599 -126.52615881 185.9695761 -127.25317383 187.40649414 C-127.93166527 188.74737087 -128.61348995 190.08656933 -129.29956055 191.42358398 C-131.53645428 195.85024833 -133.32177716 200.33195862 -135 205 C-127.08301093 211.19651265 -119.03561328 217.17816939 -110.86767578 223.03979492 C-105.86636791 226.63504302 -100.91501795 230.28779531 -96 234 C-89.63727416 238.80394122 -83.19479569 243.48684322 -76.71972656 248.13793945 C-71.68439167 251.76257788 -66.70181682 255.44971193 -61.75 259.1875 C-56.38660089 263.2347798 -50.97241491 267.19311121 -45.49023438 271.07763672 C-40.53365388 274.59802998 -35.63846609 278.19827629 -30.75 281.8125 C-23.46366115 287.1993076 -16.14134362 292.53306394 -8.78613281 297.82543945 C-8.08456055 298.33034912 -7.38298828 298.83525879 -6.66015625 299.35546875 C-5.6858667 300.04648682 -5.6858667 300.04648682 -4.69189453 300.75146484 C-3 302 -3 302 -0.80859375 303.98828125 C0.99342479 305.25371754 0.99342479 305.25371754 3.23828125 304.55078125 C7.10830904 302.3776539 10.62321686 299.82611513 14.1875 297.1875 C15.80588677 296.00376568 17.42437929 294.82017591 19.04296875 293.63671875 C19.86716309 293.03134277 20.69135742 292.4259668 21.54052734 291.80224609 C25.34542264 289.01410463 29.17311277 286.25783265 33 283.5 C34.49620536 282.41942536 35.99229872 281.33869562 37.48828125 280.2578125 C40.52626418 278.06360376 43.56544994 275.87107461 46.60546875 273.6796875 C53.67300778 268.58328 60.73097172 263.47557494 67.75 258.3125 C72.72561474 254.65295969 77.72401101 251.02758567 82.75 247.4375 C83.33491211 247.01960205 83.91982422 246.6017041 84.52246094 246.17114258 C86.99332793 244.41088757 89.47547027 242.68301982 92 241 C91.41463049 237.529786 90.5269552 234.66055604 88.98828125 231.5 C88.56740234 230.62794922 88.14652344 229.75589844 87.71289062 228.85742188 C87.25076172 227.91447266 86.78863281 226.97152344 86.3125 226 C85.82845703 225.00033203 85.34441406 224.00066406 84.84570312 222.97070312 C83.79219059 220.79575247 82.73626138 218.62197116 81.67822266 216.44921875 C79.06961129 211.08778998 76.48141838 205.71652624 73.89102173 200.34628296 C72.9973746 198.49455992 72.10272255 196.6433257 71.20776367 194.79223633 C67.49028529 187.10166278 63.79947489 179.39872194 60.125 171.6875 C57.14076674 165.42830589 54.12251197 159.19139454 51 153 C47.59677186 146.23224746 44.24784002 139.43867831 40.9375 132.625 C40.43541016 131.60664063 39.93332031 130.58828125 39.41601562 129.5390625 C38.95775391 128.5903125 38.49949219 127.6415625 38.02734375 126.6640625 C37.61218506 125.81279785 37.19702637 124.9615332 36.76928711 124.08447266 C36.51542236 123.39659668 36.26155762 122.7087207 36 122 C36.33 121.34 36.66 120.68 37 120 C40.62498334 119.97106068 44.24993713 119.95322208 47.875 119.9375 C49.42380859 119.92493164 49.42380859 119.92493164 51.00390625 119.91210938 C51.99003906 119.90888672 52.97617188 119.90566406 53.9921875 119.90234375 C54.90339355 119.89710693 55.81459961 119.89187012 56.75341797 119.88647461 C59 120 59 120 61 121 C61.96704102 122.66943359 61.96704102 122.66943359 63.00390625 124.8984375 C63.40585205 125.75195801 63.80779785 126.60547852 64.22192383 127.48486328 C64.88550903 128.91548096 64.88550903 128.91548096 65.5625 130.375 C66.55601605 132.48497612 67.55089724 134.59430977 68.546875 136.703125 C69.09537109 137.86650391 69.64386719 139.02988281 70.20898438 140.22851562 C73.16384084 146.46965275 76.19661633 152.67331972 79.2199707 158.88146973 C81.05985671 162.65971163 82.8971407 166.43921812 84.734375 170.21875 C85.09692383 170.9644928 85.45947266 171.7102356 85.83300781 172.47857666 C89.82566375 180.69407829 93.79522373 188.92065432 97.76098633 197.14916992 C100.80666049 203.46597894 103.86232685 209.7776361 106.93359375 216.08203125 C113.8695755 230.32693526 120.71919353 244.60301544 127.38751221 258.97537231 C132.10411936 269.13740287 136.98656737 279.18109382 142.10253906 289.14794922 C143.23974689 291.36709061 144.36991827 293.58972345 145.5 295.8125 C145.8511084 296.48974121 146.2022168 297.16698242 146.56396484 297.86474609 C148.04193862 300.77518309 149 302.68802286 149 306 C145.27189132 306.23292281 141.54565008 306.37459124 137.8125 306.5 C136.75740234 306.56703125 135.70230469 306.6340625 134.61523438 306.703125 C127.04481669 306.89417655 127.04481669 306.89417655 124.3371582 304.5769043 C122.96100961 302.45082135 121.98390525 300.33367784 121 298 C120.1078346 296.2136602 119.21317385 294.42856512 118.31640625 292.64453125 C117.39328859 290.70296052 116.47546511 288.75886529 115.5625 286.8125 C115.08385498 285.80179443 114.60520996 284.79108887 114.11206055 283.74975586 C110.69511911 276.52141 107.31059952 269.27773143 104 262 C99.86093289 262.58410193 96.95696115 264.95764673 93.6875 267.375 C92.77097656 268.04112305 92.77097656 268.04112305 91.8359375 268.72070312 C89.88577235 270.14062989 87.9423989 271.56947236 86 273 C84.74626936 273.91951032 83.49236522 274.83878413 82.23828125 275.7578125 C80.35850014 277.13618756 78.47925254 278.51526177 76.6015625 279.89648438 C71.92028511 283.33746456 67.20471592 286.7271441 62.47167969 290.09643555 C55.39353761 295.13749699 48.356009 300.23468703 41.31445312 305.32666016 C39.03824376 306.97234992 36.76144646 308.61722209 34.484375 310.26171875 C33.7430835 310.79748535 33.00179199 311.33325195 32.23803711 311.88525391 C30.75357092 312.9562978 29.26741914 314.02500957 27.77954102 315.09130859 C23.82291071 317.93189957 19.91163409 320.81779586 16.04296875 323.77734375 C15.23021484 324.38964844 14.41746094 325.00195312 13.58007812 325.6328125 C12.01672445 326.81202784 10.46402695 328.00554183 8.92382812 329.21484375 C3.73832837 333.09327436 3.73832837 333.09327436 0.43359375 332.67578125 C-2.81669628 330.43762006 -6.00378665 328.16601009 -9.125 325.75 C-10.55667707 324.65934901 -11.98899572 323.56953981 -13.421875 322.48046875 C-14.54432617 321.62461182 -14.54432617 321.62461182 -15.68945312 320.75146484 C-19.55797596 317.81900681 -23.46520361 314.93958054 -27.375 312.0625 C-28.56911499 311.18331909 -28.56911499 311.18331909 -29.78735352 310.28637695 C-38.90620911 303.58363626 -48.08721434 296.96712916 -57.27783203 290.36328125 C-66.08367999 284.03554583 -74.83602397 277.65155125 -83.49316406 271.12158203 C-91.90418503 264.52306921 -91.90418503 264.52306921 -101 259 C-101.26192139 259.84530273 -101.52384277 260.69060547 -101.79370117 261.56152344 C-103.06278612 265.17896777 -104.61546802 268.58055802 -106.30078125 272.015625 C-106.61903366 272.67149597 -106.93728607 273.32736694 -107.2651825 274.00311279 C-108.27751948 276.08710029 -109.29497797 278.1685401 -110.3125 280.25 C-110.98404925 281.63135232 -111.65527593 283.01286151 -112.32617188 284.39453125 C-115.83956659 291.6194861 -119.40681973 298.81363946 -123 306 C-130.59 306 -138.18 306 -146 306 C-146.33 305.34 -146.66 304.68 -147 304 C-145.83167865 301.25960201 -144.59521329 298.63390427 -143.2578125 295.9765625 C-142.85841965 295.16666367 -142.45902679 294.35676483 -142.04753113 293.52232361 C-141.19058754 291.78603071 -140.33018583 290.05144117 -139.46670532 288.31838989 C-137.24942724 283.8673422 -135.056782 279.40420713 -132.86328125 274.94140625 C-132.43518661 274.07178757 -132.00709198 273.20216888 -131.56602478 272.30619812 C-127.14593366 263.30545187 -122.98471408 254.20193732 -119 245 C-119.47606689 244.64921387 -119.95213379 244.29842773 -120.44262695 243.93701172 C-121.8924215 242.86874205 -123.34220923 241.80046312 -124.79199219 240.73217773 C-126.48920885 239.481623 -128.18647544 238.23113602 -129.88378906 236.98071289 C-134.33904838 233.69834366 -138.79351662 230.4149132 -143.24609375 227.12890625 C-144.50522583 226.20005615 -144.50522583 226.20005615 -145.78979492 225.25244141 C-147.39052945 224.07154823 -148.99096846 222.89025434 -150.59106445 221.70849609 C-155.03312923 218.43233394 -159.50012667 215.19633859 -164 212 C-161.45198003 206.60826391 -158.89935462 201.21873673 -156.34277344 195.83105469 C-155.46755025 193.98576595 -154.59316028 192.14008173 -153.71972656 190.29394531 C-148.27707263 178.79555689 -142.71204435 167.36712133 -137 156 C-129.93043079 141.93131047 -123.11537668 127.75117413 -116.4140625 113.50390625 C-115.98706055 112.59954834 -115.56005859 111.69519043 -115.12011719 110.76342773 C-114.33847157 109.10710534 -113.55998993 107.44928221 -112.78613281 105.78930664 C-108.8043552 97.35394768 -104.38209443 89.27728947 -100 81 C-79.87 80.67 -59.74 80.34 -39 80 C-35.37 72.41 -31.74 64.82 -28 57 C-23.875 48.75 -23.875 48.75 -21.9609375 44.953125 C-19.33936678 39.70998357 -16.86331546 34.3980746 -14.36816406 29.09399414 C-10.7062004 21.33098054 -6.86986533 13.6609325 -3 6 C-1.99909431 4.0004531 -0.99877432 2.00061237 0 0 Z "
          fill="#E5E5E5" transform="translate(199,34)"/>
    <path d="M0 0 C0.33 2.31 0.66 4.62 1 7 C1.61875 6.4225 2.2375 5.845 2.875 5.25 C9.03389393 0.81559637 15.39340515 -1.66144303 23 -1 C24.89223518 4.67670554 22.47430352 10.74290836 20 16 C17.14236993 17.96894437 14.36400258 18.3658523 11 19 C6.25761139 21.9101021 3.22817825 25.94628308 1 31 C0.28970109 35.05755239 0.27821586 39.04417994 0.29296875 43.15625 C0.27784744 44.29912476 0.26272614 45.44199951 0.24714661 46.61950684 C0.20438201 50.24654037 0.19544185 53.87273981 0.1875 57.5 C0.16434717 59.968772 0.13898021 62.43752429 0.11132812 64.90625 C0.04858654 70.93750802 0.01356343 76.96844157 0 83 C-3 84 -3 84 -17 83 C-17 55.61 -17 28.22 -17 0 C-4 -1 -4 -1 0 0 Z "
          fill="#E5E5E5" transform="translate(200,207)"/>
</svg>
